PathFileType	4	(X/Y/Z)	/Users/mathieubourgeois/Desktop/Analyse/Traitement/Sujet_02/Data/Transformed_Sujet_02_velo_100.trc
DataRate	CameraRate	NumFrames	NumMarkers	Units	OrigDataRate	OrigDataStartFrame	OrigNumFrames
120.000000	120.000000	4	36	mm	120.000000	1176	1882
Frame#	Time	RFHD			RANE			STRN			LANI			LKNE			T10			RHUM			RWRB			C7			LFWT			LTOE			RTOE			LWRA			LBWT			RBWT			RFWT			LKNI			RKNI			RKNE			LANE			RANI			LHEE			RHEE			LHUM			LRAD			RRAD			RWRA			LWRB			LFHD			LBHD			RBHD			RSHO			LSHO			CLAV			LCAR			RCAR			
		X1	Y1	Z1	X2	Y2	Z2	X3	Y3	Z3	X4	Y4	Z4	X5	Y5	Z5	X6	Y6	Z6	X7	Y7	Z7	X8	Y8	Z8	X9	Y9	Z9	X10	Y10	Z10	X11	Y11	Z11	X12	Y12	Z12	X13	Y13	Z13	X14	Y14	Z14	X15	Y15	Z15	X16	Y16	Z16	X17	Y17	Z17	X18	Y18	Z18	X19	Y19	Z19	X20	Y20	Z20	X21	Y21	Z21	X22	Y22	Z22	X23	Y23	Z23	X24	Y24	Z24	X25	Y25	Z25	X26	Y26	Z26	X27	Y27	Z27	X28	Y28	Z28	X29	Y29	Z29	X30	Y30	Z30	X31	Y31	Z31	X32	Y32	Z32	X33	Y33	Z33	X34	Y34	Z34	X35	Y35	Z35	X36	Y36	Z36	

1177	9.800000000000001	74.31833648681639	1457.71728515625	124.7335815429687	-137.8108825683594	332.01513671875	180.6197509765624	-204.8851623535156	1283.131713867188	30.13905143737783	-337.7494812011719	545.8197021484375	-68.3070373535157	-86.76245117187499	878.8582153320312	-132.9835510253907	-361.0179138183594	1517.986083984375	31.67416954040514	-59.63134765625003	1178.433227539062	222.5322265624999	176.2147827148437	1025.572387695312	160.2617950439453	-138.708251953125	1570.693603515625	34.08451461791981	-394.3146057128906	1214.189453125	-94.81757354736339	-207.5599670410156	387.790283203125	-137.6965332031251	82.75479125976561	293.1023254394531	153.2991943359375	218.1994018554688	1046.916381835938	-159.3404693603516	-586.6353149414062	1206.364379882812	-45.6340713500978	-586.037109375	1214.094116210938	75.7216644287108	-410.1632080078125	1227.611572265625	172.1638946533202	-49.39445495605468	842.4287109375	-31.23952484130865	-95.27297973632814	769.15283203125	95.65545654296869	-150.7473449707032	798.4718017578125	195.8528289794921	-366.8706359863281	553.1190185546875	-157.1157379150391	-116.8294982910156	352.4721984863281	93.44803619384761	-440.335693359375	558.5177612304688	-113.3328704833985	-205.4456634521485	291.88916015625	129.4479370117187	-23.54308319091795	1212.835083007812	-176.0012817382813	35.01059341430666	1252.10986328125	-199.9189910888673	-8.811665534973178	1221.912475585938	270.7983398437499	204.0245361328125	1054.21728515625	219.4719543457031	179.1389770507812	1023.329040527344	-99.28215789794925	67.85297393798828	1420.849487304688	-19.70748901367195	1.4110598564148	1557.947509765625	-37.56898498535165	10.00633811950682	1576.22314453125	121.5560226440429	-122.5773162841797	1514.058349609375	185.9163818359374	-97.17297363281249	1518.688842773438	-99.60878753662121	-104.1181488037109	1424.470825195312	17.73591041564931	292.637939453125	1038.414184570312	-75.3673782348633	294.8957824707031	1015.664367675781	144.0222473144531	
1178	9.808333333333334	74.68573760986327	1457.802368164062	123.8400192260741	-145.1564025878907	319.3934020996094	180.4961547851562	-204.4602661132812	1283.275756835938	29.59070587158193	-332.6659545898438	559.7733764648438	-67.1761550903321	-80.26023101806639	891.2826538085938	-132.3603973388672	-360.6797180175781	1517.841064453125	31.38437080383287	-59.44036865234378	1179.174926757812	222.770278930664	176.029296875	1025.668212890625	160.7283477783203	-138.4241027832031	1570.909545898438	32.96482086181629	-394.2762451171875	1214.677978515625	-94.16449737548839	-197.6994171142578	405.4353332519531	-136.7974700927735	75.03701782226561	275.6592712402344	152.7807312011718	217.9099884033203	1047.003173828125	-159.055419921875	-586.5364990234375	1206.417236328125	-44.90686416625991	-585.17919921875	1213.972778320312	76.36880493164048	-409.2519226074219	1226.85302734375	172.9896697998045	-49.61785507202148	855.0662231445312	-24.88319015502936	-106.4248886108399	755.8856201171875	94.58393859863276	-161.0461883544922	786.8045043945312	195.637222290039	-360.3440246582031	566.6961669921875	-156.5717010498048	-123.6786117553711	339.7503967285156	93.53236389160153	-434.2235412597656	570.1494140625	-112.2937545776368	-213.1294555664063	280.9563903808594	129.1474304199218	-24.17800521850584	1212.326293945312	-176.2764587402345	34.28603363037112	1251.562866210938	-200.5590820312501	-8.50960731506351	1222.7080078125	270.7961120605468	203.9220733642578	1054.371826171875	219.9181976318359	178.9401397705078	1023.491149902344	-98.948356628418	68.08631896972656	1421.014404296875	-20.69516181945809	1.7353607416153	1558.139770507812	-38.45600509643564	10.4176034927368	1576.369018554688	120.6943359374999	-122.1325607299805	1514.688354492188	184.8498687744139	-97.23368072509764	1518.7783203125	-100.7919082641603	-103.7911682128906	1424.653930664062	16.66460990905751	292.43359375	1038.6083984375	-75.02084350585939	294.7081298828125	1015.695190429688	144.4307250976562	
1179	9.816666666666666	74.94397735595702	1457.926513671875	122.8734817504882	-153.2626647949219	307.8035278320312	180.319595336914	-203.9829254150391	1283.452514648438	29.05561256408681	-324.6269226074219	572.9584350585938	-66.31169128417976	-73.81775665283202	903.4619140625	-131.6539154052735	-360.3806457519531	1517.653564453125	31.07078933715807	-59.23084640502933	1179.93896484375	223.045196533203	175.8861236572265	1025.7783203125	161.0701751708984	-138.221923828125	1571.206665039062	31.83270835876453	-394.1410522460938	1215.21337890625	-93.45098114013683	-186.9108276367187	422.3057556152344	-135.9337463378907	66.1140670776367	258.5051574707031	152.1517333984375	217.6205444335938	1047.0751953125	-158.9408569335938	-586.1268920898438	1206.377685546875	-44.38853073120131	-584.3123779296875	1213.801391601562	76.86333465576158	-408.3915100097656	1226.086547851562	173.8217926025389	-42.67321395874023	869.2636108398438	-24.62387275695806	-117.5544204711914	743.6404418945312	93.60240173339838	-170.5956726074219	775.1277465820312	194.4729003906249	-353.3403625488281	579.2332763671875	-155.9288482666016	-129.8248291015625	328.0506591796875	93.94520568847653	-427.7632751464844	580.4531860351562	-111.8309402465821	-221.8478393554688	271.3500366210938	128.8427429199218	-24.84891510009763	1211.848388671875	-176.6311645507813	33.49089050292971	1251.01904296875	-201.321029663086	-8.191389083862338	1223.507568359375	270.8157653808593	203.8612670898437	1054.497192382812	220.210220336914	178.7062530517578	1023.729919433594	-98.68766784667972	68.30776214599609	1421.208862304688	-21.66442871093758	3.096969127655034	1558.1455078125	-38.99560546875009	10.81987571716307	1576.569091796875	119.8254013061522	-121.6142501831055	1515.325805664062	183.8533477783202	-97.35836029052733	1518.876220703125	-102.0909271240236	-103.4719085693359	1424.921142578125	15.59932136535635	292.2657165527344	1038.751098632812	-74.83384704589845	294.5502624511719	1015.745300292969	144.6740417480468	
1180	9.824999999999999	75.27574157714842	1458.1845703125	122.0944824218749	-162.3044891357422	297.3834838867188	180.2033538818359	-203.454345703125	1283.64111328125	28.67617988586415	-317.5488586425781	585.4550170898438	-65.5088424682618	-67.65699768066405	915.723388671875	-129.9122314453126	-360.11328125	1517.468505859375	30.82724189758287	-58.9084281921387	1180.666015625	223.3936614990234	175.7958526611328	1025.906860351562	161.2620849609375	-138.0462188720703	1571.48828125	30.64123535156239	-393.9412231445312	1215.72509765625	-92.74964141845714	-174.7455444335937	439.2117614746094	-135.1653594970704	55.92736053466795	241.8888702392578	151.5005950927734	217.3850860595703	1047.130615234375	-158.967041015625	-585.61767578125	1206.296020507812	-44.11056900024428	-583.5303955078125	1213.55908203125	77.2311630249022	-407.6194763183594	1225.399291992188	174.6611938476561	-34.70194625854492	880.212890625	-24.0321998596192	-128.0749359130859	732.5503540039062	92.63898468017572	-180.2319488525391	765.3707275390625	194.2438659667968	-345.6262512207031	590.5000610351562	-155.2818756103516	-139.9537658691406	316.7956237792969	93.20158386230466	-420.6091613769531	589.1192016601562	-111.4046707153321	-231.5757598876953	263.0307006835938	128.5677490234374	-25.51770401000974	1211.329345703125	-177.066879272461	32.67639160156252	1250.40576171875	-202.1507720947266	-7.69279766082767	1224.39794921875	270.8184814453124	203.9030151367187	1054.611083984375	220.3759613037109	178.543701171875	1023.940856933594	-98.59078216552737	68.44845581054688	1421.42626953125	-22.67375183105477	3.399731874465947	1558.49169921875	-39.91941452026376	11.24270248413085	1576.861083984375	118.9717712402343	-121.1768112182617	1515.905395507812	182.8565673828124	-97.41264343261717	1518.956420898438	-103.4022216796876	-103.1575317382812	1425.199829101562	14.55545139312734	292.1633911132812	1038.808959960938	-74.81777191162111	294.4291076660156	1015.78125	144.786636352539	
